<svg xmlns="http://www.w3.org/2000/svg" width="16" height="16" viewBox="0 0 30 30" shape-rendering="crispEdges">
  <rect width="30" height="30" fill="#000"/>
  <rect x="0" y="0" width="6" height="6" fill="grey"/>
  <rect x="12" y="0" width="6" height="6" fill="#fff"/>
  <rect x="24" y="0" width="6" height="6" fill="greenyellow"/>
  <rect x="0" y="12" width="6" height="6" fill="grey"/>
  <rect x="12" y="12" width="6" height="6" fill="grey"/>
  <rect x="24" y="12" width="6" height="6" fill="grey"/>
  <rect x="0" y="24" width="6" height="6" fill="grey"/>
  <rect x="12" y="24" width="6" height="6" fill="grey"/>
  <rect x="24" y="24" width="6" height="6" fill="grey"/>
  <rect x="6" y="0" width="6" height="6" fill="grey"/>
  <rect x="0" y="6" width="6" height="6" fill="grey"/>
  <rect x="24" y="6" width="6" height="6" fill="grey"/>
  <rect x="0" y="18" width="6" height="6" fill="grey"/>
  <rect x="18" y="12" width="6" height="6" fill="grey"/>
  <rect x="12" y="18" width="6" height="6" fill="grey"/>
  <rect x="6" y="24" width="6" height="6" fill="grey"/>
  <rect x="18" y="24" width="6" height="6" fill="grey"/>
</svg>
